<?xml version="1.0" standalone="no"?>
<svg
  width="600"
  height="600"
  viewBox="0 0 600 600"
  xmlns="http://www.w3.org/2000/svg"
>
  <g transform="translate(300,300)">
    <path d="M85.4,-84.4C102.6,-87.3,103,-52.8,101.8,-23.3C100.7,6.2,98,30.6,95.6,74.3C93.2,118.1,91,181.2,74.2,174.6C57.5,167.9,26,91.5,3.7,55.1C-18.7,18.7,-31.8,22.3,-68.7,13.2C-105.5,4,-166,-18,-187.2,-56.5C-208.4,-95.1,-190.3,-150.2,-152.6,-143.7C-114.8,-137.2,-57.4,-69.1,-11.7,-55.2C34.1,-41.3,68.1,-81.5,85.4,-84.4Z" fill="#c30000" />
  </g>
</svg>
  